<svg width="22" height="16" viewBox="0 0 22 16" fill="none" xmlns="http://www.w3.org/2000/svg">
<path fill-rule="evenodd" clip-rule="evenodd" d="M1.40001 0.799988C0.958182 0.799988 0.600006 1.15816 0.600006 1.59999C0.600006 2.04181 0.958182 2.39999 1.40001 2.39999H20.6C21.0418 2.39999 21.4 2.04181 21.4 1.59999C21.4 1.15816 21.0418 0.799988 20.6 0.799988H1.40001ZM0.600006 7.99999C0.600006 7.55816 0.958182 7.19999 1.40001 7.19999H20.6C21.0418 7.19999 21.4 7.55816 21.4 7.99999C21.4 8.44181 21.0418 8.79999 20.6 8.79999H1.40001C0.958182 8.79999 0.600006 8.44181 0.600006 7.99999ZM0.600006 14.4C0.600006 13.9582 0.958182 13.6 1.40001 13.6H20.6C21.0418 13.6 21.4 13.9582 21.4 14.4C21.4 14.8417 21.0418 15.2 20.6 15.2H1.40001C0.958182 15.2 0.600006 14.8417 0.600006 14.4Z" fill="white"/>
</svg>
