<svg width="18" height="18" viewBox="0 0 18 18" fill="none" xmlns="http://www.w3.org/2000/svg">
<path fill-rule="evenodd" clip-rule="evenodd" d="M17.5657 1.56567C17.878 1.25325 17.878 0.746722 17.5657 0.434306C17.2532 0.121874 16.7467 0.121874 16.4342 0.434306L8.99995 7.86861L1.56563 0.434306C1.25322 0.121874 0.746691 0.121874 0.434275 0.434306C0.121843 0.746722 0.121843 1.25325 0.434275 1.56567L7.86858 8.99998L0.434275 16.4342C0.121843 16.7467 0.121843 17.2533 0.434275 17.5657C0.746691 17.8781 1.25322 17.8781 1.56563 17.5657L8.99995 10.1314L16.4342 17.5657C16.7467 17.8781 17.2532 17.8781 17.5657 17.5657C17.878 17.2533 17.878 16.7467 17.5657 16.4342L10.1313 8.99998L17.5657 1.56567Z" fill="white"/>
</svg>
